<?xml version="1.0" standalone="no"?>
<!DOCTYPE svg PUBLIC "-//W3C//DTD SVG 20010904//EN"
 "http://www.w3.org/TR/2001/REC-SVG-20010904/DTD/svg10.dtd">
<svg version="1.0" xmlns="http://www.w3.org/2000/svg"
 width="297.000000pt" height="297.000000pt" viewBox="0 0 297.000000 297.000000"
 preserveAspectRatio="xMidYMid meet">
<metadata>
Created by potrace 1.14, written by Peter Selinger 2001-2017
</metadata>
<g transform="translate(0.000000,297.000000) scale(0.100000,-0.100000)"
fill="#000000" stroke="none">
<path d="M840 2744 c-8 -2 -46 -5 -85 -8 -99 -6 -139 -12 -162 -25 -11 -5 -23
-7 -27 -4 -3 3 -6 2 -6 -3 0 -5 -10 -10 -22 -11 -11 -1 -24 -6 -27 -10 -7 -10
-61 -45 -61 -39 0 12 -104 -100 -134 -146 -39 -58 -75 -149 -82 -207 -9 -78
-16 -189 -15 -251 0 -36 0 -274 0 -529 1 -329 4 -468 12 -477 9 -11 9 -14 0
-14 -16 0 -6 -283 13 -375 9 -41 27 -85 35 -85 4 0 7 -9 8 -20 2 -19 51 -97
85 -134 10 -11 18 -24 18 -30 0 -5 3 -7 6 -4 3 4 19 -8 35 -24 16 -17 29 -28
29 -25 0 4 9 -1 20 -11 12 -9 24 -17 28 -17 4 -1 16 -6 27 -12 33 -18 126 -43
190 -49 79 -9 1411 -9 1493 -1 35 4 67 9 71 11 4 3 22 8 41 11 18 3 45 12 61
21 16 8 29 11 29 7 0 -5 4 -3 8 3 4 5 23 20 42 32 54 33 169 163 162 184 -1 4
3 8 9 8 5 0 8 4 5 9 -3 5 1 14 9 21 8 7 13 16 10 20 -3 5 -1 11 5 15 14 8 32
82 46 185 6 41 6 43 2 93 -2 21 0 43 3 49 4 6 3 22 -1 34 -6 14 -5 26 0 29 6
4 7 13 2 23 -5 9 -8 28 -6 42 3 28 4 66 4 93 0 9 0 25 0 35 0 9 0 26 0 37 1
11 1 27 0 35 0 8 0 24 0 35 1 11 1 27 1 35 0 8 0 42 0 75 1 78 1 74 -4 118 -3
20 -2 37 2 37 3 0 5 24 4 52 -2 29 -3 72 -2 96 0 38 0 204 -1 235 0 6 1 59 2
115 2 57 1 105 -1 108 -2 2 -5 30 -7 61 -2 32 -5 69 -8 83 -13 83 -20 110 -27
110 -5 0 -8 3 -8 8 1 4 0 9 -1 12 -1 3 -3 12 -5 21 -7 39 -121 179 -145 179
-5 0 -10 6 -10 14 0 7 -8 16 -17 19 -19 6 -75 38 -83 48 -5 6 -35 15 -115 34
-73 18 -280 23 -840 22 -330 0 -607 -2 -615 -3z"/>
</g>
</svg>
